<svg width="225" height="45" viewBox="0 0 225 45" fill="none" xmlns="http://www.w3.org/2000/svg">
<path d="M15.264 37.432C13.368 37.432 11.604 37.084 9.972 36.388C8.364 35.692 6.96 34.732 5.76 33.508C4.584 32.26 3.66 30.796 2.988 29.116C2.316 27.436 1.98 25.588 1.98 23.572C1.98 21.58 2.304 19.744 2.952 18.064C3.624 16.36 4.56 14.896 5.76 13.672C6.96 12.424 8.364 11.464 9.972 10.792C11.58 10.096 13.344 9.748 15.264 9.748C17.16 9.748 18.852 10.072 20.34 10.72C21.852 11.368 23.124 12.22 24.156 13.276C25.188 14.308 25.932 15.436 26.388 16.66L22.572 18.46C21.996 17.02 21.072 15.856 19.8 14.968C18.552 14.056 17.04 13.6 15.264 13.6C13.488 13.6 11.916 14.02 10.548 14.86C9.18 15.7 8.112 16.864 7.344 18.352C6.6 19.84 6.228 21.58 6.228 23.572C6.228 25.564 6.6 27.316 7.344 28.828C8.112 30.316 9.18 31.48 10.548 32.32C11.916 33.136 13.488 33.544 15.264 33.544C17.04 33.544 18.552 33.1 19.8 32.212C21.072 31.324 21.996 30.16 22.572 28.72L26.388 30.52C25.932 31.72 25.188 32.848 24.156 33.904C23.124 34.96 21.852 35.812 20.34 36.46C18.852 37.108 17.16 37.432 15.264 37.432ZM30.3604 37V17.524H34.2484V21.448L33.8884 20.872C34.3204 19.6 35.0164 18.688 35.9764 18.136C36.9364 17.56 38.0884 17.272 39.4324 17.272H40.6204V20.98H38.9284C37.5844 20.98 36.4924 21.4 35.6524 22.24C34.8364 23.056 34.4284 24.232 34.4284 25.768V37H30.3604ZM45.1313 44.956C44.6513 44.956 44.1713 44.908 43.6913 44.812C43.2353 44.74 42.8153 44.62 42.4313 44.452V40.96C42.7193 41.032 43.0673 41.092 43.4753 41.14C43.8833 41.212 44.2793 41.248 44.6633 41.248C45.7913 41.248 46.6193 40.996 47.1473 40.492C47.6993 40.012 48.1913 39.256 48.6233 38.224L49.9193 35.272L49.8473 38.692L41.4233 17.524H45.7793L52.0073 33.76H50.5313L56.7233 17.524H61.1153L52.5113 39.124C52.0553 40.276 51.4793 41.284 50.7833 42.148C50.1113 43.036 49.3073 43.72 48.3713 44.2C47.4593 44.704 46.3793 44.956 45.1313 44.956ZM63.8994 44.2V17.524H67.7874V21.556L67.3194 20.62C68.0394 19.516 68.9994 18.652 70.1994 18.028C71.3994 17.404 72.7674 17.092 74.3034 17.092C76.1514 17.092 77.8074 17.536 79.2714 18.424C80.7594 19.312 81.9234 20.524 82.7634 22.06C83.6274 23.596 84.0594 25.324 84.0594 27.244C84.0594 29.164 83.6274 30.892 82.7634 32.428C81.9234 33.964 80.7714 35.188 79.3074 36.1C77.8434 36.988 76.1754 37.432 74.3034 37.432C72.7914 37.432 71.4114 37.12 70.1634 36.496C68.9394 35.872 67.9914 34.972 67.3194 33.796L67.9674 33.04V44.2H63.8994ZM73.9074 33.652C75.0594 33.652 76.0794 33.376 76.9674 32.824C77.8554 32.272 78.5514 31.516 79.0554 30.556C79.5834 29.572 79.8474 28.468 79.8474 27.244C79.8474 26.02 79.5834 24.928 79.0554 23.968C78.5514 23.008 77.8554 22.252 76.9674 21.7C76.0794 21.148 75.0594 20.872 73.9074 20.872C72.7794 20.872 71.7594 21.148 70.8474 21.7C69.9594 22.252 69.2514 23.008 68.7234 23.968C68.2194 24.928 67.9674 26.02 67.9674 27.244C67.9674 28.468 68.2194 29.572 68.7234 30.556C69.2514 31.516 69.9594 32.272 70.8474 32.824C71.7594 33.376 72.7794 33.652 73.9074 33.652ZM96.0891 37.216C94.0491 37.216 92.4651 36.64 91.3371 35.488C90.2091 34.336 89.6451 32.716 89.6451 30.628V21.196H86.2251V17.524H86.7651C87.6771 17.524 88.3851 17.26 88.8891 16.732C89.3931 16.204 89.6451 15.484 89.6451 14.572V13.06H93.7131V17.524H98.1411V21.196H93.7131V30.448C93.7131 31.12 93.8211 31.696 94.0371 32.176C94.2531 32.632 94.6011 32.992 95.0811 33.256C95.5611 33.496 96.1851 33.616 96.9531 33.616C97.1451 33.616 97.3611 33.604 97.6011 33.58C97.8411 33.556 98.0691 33.532 98.2851 33.508V37C97.9491 37.048 97.5771 37.096 97.1691 37.144C96.7611 37.192 96.4011 37.216 96.0891 37.216ZM111.299 37.432C109.427 37.432 107.711 36.988 106.151 36.1C104.615 35.212 103.391 34 102.479 32.464C101.567 30.928 101.111 29.188 101.111 27.244C101.111 25.276 101.567 23.536 102.479 22.024C103.391 20.488 104.615 19.288 106.151 18.424C107.687 17.536 109.403 17.092 111.299 17.092C113.219 17.092 114.935 17.536 116.447 18.424C117.983 19.288 119.195 20.488 120.083 22.024C120.995 23.536 121.451 25.276 121.451 27.244C121.451 29.212 120.995 30.964 120.083 32.5C119.171 34.036 117.947 35.248 116.411 36.136C114.875 37 113.171 37.432 111.299 37.432ZM111.299 33.652C112.451 33.652 113.471 33.376 114.359 32.824C115.247 32.272 115.943 31.516 116.447 30.556C116.975 29.572 117.239 28.468 117.239 27.244C117.239 26.02 116.975 24.928 116.447 23.968C115.943 23.008 115.247 22.252 114.359 21.7C113.471 21.148 112.451 20.872 111.299 20.872C110.171 20.872 109.151 21.148 108.239 21.7C107.351 22.252 106.643 23.008 106.115 23.968C105.611 24.928 105.359 26.02 105.359 27.244C105.359 28.468 105.611 29.572 106.115 30.556C106.643 31.516 107.351 32.272 108.239 32.824C109.151 33.376 110.171 33.652 111.299 33.652ZM125.423 44.2V17.524H129.311V21.556L128.843 20.62C129.563 19.516 130.523 18.652 131.723 18.028C132.923 17.404 134.291 17.092 135.827 17.092C137.675 17.092 139.331 17.536 140.795 18.424C142.283 19.312 143.447 20.524 144.287 22.06C145.151 23.596 145.583 25.324 145.583 27.244C145.583 29.164 145.151 30.892 144.287 32.428C143.447 33.964 142.295 35.188 140.831 36.1C139.367 36.988 137.699 37.432 135.827 37.432C134.315 37.432 132.935 37.12 131.687 36.496C130.463 35.872 129.515 34.972 128.843 33.796L129.491 33.04V44.2H125.423ZM135.431 33.652C136.583 33.652 137.603 33.376 138.491 32.824C139.379 32.272 140.075 31.516 140.579 30.556C141.107 29.572 141.371 28.468 141.371 27.244C141.371 26.02 141.107 24.928 140.579 23.968C140.075 23.008 139.379 22.252 138.491 21.7C137.603 21.148 136.583 20.872 135.431 20.872C134.303 20.872 133.283 21.148 132.371 21.7C131.483 22.252 130.775 23.008 130.247 23.968C129.743 24.928 129.491 26.02 129.491 27.244C129.491 28.468 129.743 29.572 130.247 30.556C130.775 31.516 131.483 32.272 132.371 32.824C133.283 33.376 134.303 33.652 135.431 33.652ZM149.54 37V17.524H153.608V37H149.54ZM149.54 14.86V10.18H153.608V14.86H149.54ZM164.196 37.432C162.876 37.432 161.712 37.204 160.704 36.748C159.72 36.268 158.952 35.62 158.4 34.804C157.848 33.964 157.572 32.98 157.572 31.852C157.572 30.796 157.8 29.848 158.256 29.008C158.736 28.168 159.468 27.46 160.452 26.884C161.436 26.308 162.672 25.9 164.16 25.66L170.928 24.544V27.748L164.952 28.792C163.872 28.984 163.08 29.332 162.576 29.836C162.072 30.316 161.82 30.94 161.82 31.708C161.82 32.452 162.096 33.064 162.648 33.544C163.224 34 163.956 34.228 164.844 34.228C165.948 34.228 166.908 33.988 167.724 33.508C168.564 33.028 169.212 32.392 169.668 31.6C170.124 30.784 170.352 29.884 170.352 28.9V23.896C170.352 22.936 169.992 22.156 169.272 21.556C168.576 20.932 167.64 20.62 166.464 20.62C165.384 20.62 164.436 20.908 163.62 21.484C162.828 22.036 162.24 22.756 161.856 23.644L158.472 21.952C158.832 20.992 159.42 20.152 160.236 19.432C161.052 18.688 162 18.112 163.08 17.704C164.184 17.296 165.348 17.092 166.572 17.092C168.108 17.092 169.464 17.38 170.64 17.956C171.84 18.532 172.764 19.336 173.412 20.368C174.084 21.376 174.42 22.552 174.42 23.896V37H170.532V33.472L171.36 33.58C170.904 34.372 170.316 35.056 169.596 35.632C168.9 36.208 168.096 36.652 167.184 36.964C166.296 37.276 165.3 37.432 164.196 37.432Z" fill="#001858"/>
<path d="M179.214 37V34.48H181.59V37H179.214ZM184.001 37L188.627 23.59H191.795L196.421 37H193.757L192.803 34.12H187.619L186.647 37H184.001ZM188.321 31.96H192.101L189.869 25.282H190.553L188.321 31.96ZM196.869 37V35.074L203.367 25.75H197.247V23.59H206.481V25.516L200.001 34.84H206.661V37H196.869Z" fill="#6246EA"/>
</svg>
